# xmcd
#
# Track frame offsets: 
#        150
#        12488
#        24263
#        36500
#        49403
#        60897
#        72981
#        84642
#        97208
#        108845
#        120559
#        132881
#        145093
#        157438
#        168758
#        180368
#        193124
#        206159
#
# Disc length: 2925 seconds
#
# Revision: 6
# Processed by: cddbd v1.5.2PL0 Copyright (c) Steve Scherf et al.
# Submitted via: ExactAudioCopy v0.99pb5
#
DISCID=000b6b12
DTITLE=Brownie McGhee - Born For Bad Luck
DYEAR=2004
DGENRE=Blues
TTITLE0=Picking my tomatoes
TTITLE1=I'm calling Daisy
TTITLE2=Me and my dog blues
TTITLE3=Born for bad luck
TTITLE4=Step it up and go
TTITLE5=Let me tell you 'bout my baby
TTITLE6=Prison woman blues
TTITLE7=Be good to me
TTITLE8=My barkin' bulldog blues
TTITLE9=Not guilty blues
TTITLE10=Coal miner blues
TTITLE11=Back door stranger
TTITLE12=Step it up and go No.2
TTITLE13=Got to find my little woman
TTITLE14=Dealing with the devil
TTITLE15=I'm a black woman's man
TTITLE16=Woman, I'm done
TTITLE17=Death of Blind Boy Fuller
EXTD=YEAR: 1940
EXTT0=
EXTT1=
EXTT2=
EXTT3=
EXTT4=
EXTT5=
EXTT6=
EXTT7=
EXTT8=
EXTT9=
EXTT10=
EXTT11=
EXTT12=
EXTT13=
EXTT14=
EXTT15=
EXTT16=
EXTT17=
PLAYORDER=
